<svg id="Layer_1" data-name="Layer 1" xmlns="http://www.w3.org/2000/svg" viewBox="0 0 330.7 213.89"><title>Crossref_Logo_Stacked_SingleColor_Logo</title><polygon points="223.86 96.06 292.99 72.31 292.99 119.81 223.86 96.06"/><polygon points="253.87 59.43 184.75 83.18 184.75 35.68 253.87 59.43"/><polygon points="259.47 61.27 190.35 85.02 218.26 94.21 287.39 70.47 259.47 61.27"/><polygon points="292.99 0 190.34 33.84 259.47 57.59 292.99 46.55 292.99 0"/><polygon points="184.75 108.94 184.75 155.49 287.39 121.65 218.26 97.9 184.75 108.94"/><path d="M299.32,363c-0.86-6.1-6.7-10.73-13.39-10.73-12.11,0-16.66,10.3-16.66,21,0,10.22,4.55,20.52,16.66,20.52,8.24,0,12.88-5.67,13.91-13.74h13c-1.37,15.28-11.93,25.07-27,25.07-19,0-30.13-14.16-30.13-31.85,0-18.2,11.16-32.36,30.13-32.36,13.48,0,24.81,7.9,26.44,22.06h-13Z" transform="translate(-255.8 -191.29)"/><path d="M317.61,359.34H329.2v8.24h0.17a15.69,15.69,0,0,1,14.17-9.44,9.09,9.09,0,0,1,2.66.43V369.9a22.25,22.25,0,0,0-4.38-.43c-8.93,0-12,6.44-12,14.25v20H317.61V359.34Z" transform="translate(-255.8 -191.29)"/><path d="M369.43,395.74c8.33,0,10.82-7.13,10.82-14.17s-2.49-14.25-10.82-14.25-10.73,7.13-10.73,14.25,2.49,14.17,10.73,14.17m0-37.6c14,0,23,9.27,23,23.44s-9,23.35-23,23.35-22.92-9.27-22.92-23.35,9-23.44,22.92-23.44" transform="translate(-255.8 -191.29)"/><path d="M406.6,389.3c0.09,5.32,4.55,7.47,9.36,7.47,3.52,0,8-1.37,8-5.67,0-3.69-5.06-5-13.82-6.87-7-1.55-14.08-4-14.08-11.85,0-11.33,9.79-14.25,19.32-14.25,9.7,0,18.63,3.26,19.57,14.16H423.34c-0.34-4.72-3.95-6-8.33-6-2.75,0-6.78.52-6.78,4.12,0,4.38,6.87,5,13.82,6.61,7.12,1.63,14.08,4.21,14.08,12.45,0,11.68-10.13,15.45-20.26,15.45-10.3,0-20.35-3.86-20.86-15.62H406.6Z" transform="translate(-255.8 -191.29)"/><path d="M451.11,389.3c0.09,5.32,4.55,7.47,9.36,7.47,3.52,0,8-1.37,8-5.67,0-3.69-5.06-5-13.82-6.87-7-1.55-14.08-4-14.08-11.85,0-11.33,9.79-14.25,19.32-14.25,9.7,0,18.63,3.26,19.57,14.16H467.85c-0.34-4.72-3.95-6-8.33-6-2.75,0-6.78.52-6.78,4.12,0,4.38,6.87,5,13.82,6.61,7.12,1.63,14.08,4.21,14.08,12.45,0,11.68-10.13,15.45-20.26,15.45-10.3,0-20.35-3.86-20.86-15.62h11.59Z" transform="translate(-255.8 -191.29)"/><path d="M484.59,359.34h11.59v8.24h0.17a15.69,15.69,0,0,1,14.17-9.44,9.09,9.09,0,0,1,2.66.43V369.9a22.25,22.25,0,0,0-4.38-.43c-8.93,0-12,6.44-12,14.25v20H484.59V359.34Z" transform="translate(-255.8 -191.29)"/><path d="M546.32,376.77c-1.12-6.18-3.78-9.44-9.7-9.44-7.73,0-10,6-10.13,9.44h19.83Zm-19.83,7.73c0.34,7.73,4.12,11.25,10.9,11.25,4.89,0,8.84-3,9.62-5.75h10.73C554.31,400.46,547,404.92,537,404.92c-14,0-22.67-9.62-22.67-23.35,0-13.31,9.19-23.44,22.67-23.44,15.11,0,22.41,12.71,21.55,26.36h-32Z" transform="translate(-255.8 -191.29)"/><path d="M565.21,367.49h-7.3v-8.16h7.3V355.9c0-7.81,4.89-13.48,14.85-13.48,2.15,0,4.38.26,6.44,0.34v9.1a37.87,37.87,0,0,0-4.46-.26c-3.26,0-4.64,1.37-4.64,5.06v2.66h8.41v8.16H577.4v36.23H565.21V367.49Z" transform="translate(-255.8 -191.29)"/></svg>